<?xml version="1.0" standalone="no"?>
<!DOCTYPE svg PUBLIC "-//W3C//DTD SVG 20010904//EN"
 "http://www.w3.org/TR/2001/REC-SVG-20010904/DTD/svg10.dtd">
<svg version="1.0" xmlns="http://www.w3.org/2000/svg"
 width="512.000000pt" height="512.000000pt" viewBox="0 0 512.000000 512.000000"
 preserveAspectRatio="xMidYMid meet">
<metadata>
Created by potrace 1.14, written by Peter Selinger 2001-2017
</metadata>
<g transform="translate(0.000000,512.000000) scale(0.100000,-0.100000)"
fill="#000000" stroke="none">
<path d="M1146 5088 c-15 -28 -17 -51 -12 -138 2 -58 8 -120 11 -137 7 -33 7
-33 -31 -30 -38 2 -39 1 -36 -28 2 -16 11 -38 19 -47 10 -11 13 -26 8 -47 -5
-26 -10 -29 -24 -21 -14 7 -26 2 -52 -20 -30 -25 -36 -27 -50 -14 -15 13 -18
13 -32 0 -18 -19 -8 -77 19 -107 16 -18 16 -19 -12 -20 -16 -1 -33 -2 -39 -4
-5 -1 -22 -3 -37 -3 -21 -2 -25 -6 -21 -23 3 -11 1 -30 -4 -42 -26 -55 -29
-73 -21 -102 4 -16 10 -92 12 -168 2 -76 6 -140 9 -143 3 -3 1 -19 -3 -35 -9
-29 -18 -150 -26 -319 -2 -52 -6 -113 -8 -135 -3 -22 -8 -62 -10 -90 -7 -64
-14 -113 -21 -145 -3 -14 -7 -45 -10 -70 -3 -25 -10 -70 -15 -100 -5 -30 -10
-71 -11 -90 -2 -57 -21 -150 -30 -150 -5 0 -9 5 -9 10 0 22 -55 59 -88 60 -55
0 -90 -24 -103 -73 -44 -159 -46 -176 -44 -360 2 -188 8 -247 31 -332 11 -38
41 -175 48 -215 1 -8 7 -33 13 -55 6 -22 14 -67 18 -100 10 -87 37 -133 107
-185 27 -21 32 -37 43 -155 2 -27 6 -57 8 -65 6 -24 16 -99 22 -168 3 -35 15
-88 26 -118 12 -30 18 -61 16 -68 -3 -8 -2 -17 3 -22 5 -5 11 -20 14 -34 3
-14 10 -51 16 -83 6 -32 20 -79 31 -104 23 -53 58 -155 69 -200 8 -31 7 -32
-44 -44 -28 -7 -80 -22 -116 -35 -36 -12 -78 -25 -95 -28 -16 -3 -67 -17 -111
-30 -45 -14 -100 -27 -123 -30 -23 -3 -60 -9 -83 -12 -24 -3 -90 -19 -148 -36
-58 -16 -120 -35 -139 -40 -19 -5 -45 -8 -57 -5 l-24 4 0 -168 0 -169 1965 0
1965 0 -85 81 c-46 44 -100 92 -119 107 -30 23 -84 105 -75 114 2 2 -8 16 -21
31 -14 16 -25 32 -24 35 1 4 -6 25 -16 46 -16 38 -15 42 3 93 11 29 24 53 28
53 5 0 9 6 9 14 0 8 10 27 23 43 69 85 128 215 142 313 2 19 7 46 10 60 2 14
7 34 9 45 2 11 13 44 25 72 11 29 22 67 23 83 2 22 15 42 45 69 23 22 45 52
49 68 4 15 11 30 15 33 5 4 11 42 13 86 5 84 12 114 27 114 5 0 9 9 9 19 0 11
5 23 10 26 6 4 8 11 5 16 -4 5 -1 9 4 9 6 0 11 5 11 10 0 6 10 27 23 48 45 71
88 155 108 211 26 71 59 191 52 191 -3 0 0 7 7 15 7 8 9 15 5 15 -4 0 -2 7 5
15 7 8 9 15 5 15 -5 0 -1 8 8 18 9 9 18 28 20 42 3 14 10 38 17 55 18 46 -2
116 -45 161 -14 14 -94 17 -111 3 -18 -15 -19 -23 17 143 17 79 32 161 35 183
2 22 6 55 9 73 3 18 8 83 10 145 5 110 35 283 76 432 17 59 32 117 43 160 3 9
8 23 23 63 3 9 7 20 8 25 2 4 3 8 5 10 2 3 7 28 13 74 3 21 10 50 14 63 5 14
8 43 8 66 -1 36 1 41 20 38 38 -4 49 11 21 29 -17 11 -23 22 -19 37 3 11 1 20
-5 20 -5 0 3 14 19 31 36 38 37 59 4 87 -14 12 -25 33 -25 46 0 14 -4 28 -10
31 -5 3 -10 19 -10 35 0 23 7 32 39 47 22 10 42 26 44 36 6 19 -19 37 -53 37
-30 0 -21 20 21 48 65 43 76 58 75 104 -1 35 7 55 40 104 33 49 42 71 42 108
1 52 -5 55 -61 31 -20 -8 -40 -15 -44 -15 -5 0 -7 29 -6 65 1 35 -1 67 -6 69
-5 3 -29 -10 -54 -29 -54 -41 -62 -43 -53 -12 4 12 7 56 6 97 -1 93 -13 107
-72 83 -46 -18 -53 -15 -37 20 24 54 -3 87 -73 87 -16 0 -28 5 -28 10 0 7
-509 10 -1508 10 l-1509 0 -17 -32z"/>
</g>
</svg>
