<?xml version="1.0" standalone="no"?>
<!DOCTYPE svg PUBLIC "-//W3C//DTD SVG 20010904//EN"
 "http://www.w3.org/TR/2001/REC-SVG-20010904/DTD/svg10.dtd">
<svg version="1.0" xmlns="http://www.w3.org/2000/svg"
 width="1360.000000pt" height="1360.000000pt" viewBox="0 0 1360.000000 1360.000000"
 preserveAspectRatio="xMidYMid meet">
<metadata>
Created by potrace 1.14, written by Peter Selinger 2001-2017
</metadata>
<g transform="translate(0.000000,1360.000000) scale(0.100000,-0.100000)"
fill="#000000" stroke="none">
<path d="M5515 13579 c-128 -24 -237 -52 -354 -89 -51 -17 -102 -30 -111 -30
-10 0 -20 -3 -22 -8 -3 -8 -99 -72 -138 -92 -33 -17 -214 -133 -220 -141 -9
-12 -175 -116 -225 -142 -27 -14 -111 -78 -185 -144 -226 -198 -383 -319 -401
-307 -7 4 -9 3 -5 -4 3 -6 -10 -40 -29 -75 l-36 -65 4 -228 c4 -204 7 -233 24
-265 39 -73 13 -106 -60 -75 -33 13 -38 13 -56 -3 -16 -14 -21 -30 -21 -73 0
-47 4 -58 31 -84 29 -28 30 -31 26 -99 -2 -38 -8 -69 -13 -68 -5 1 -25 8 -44
17 l-36 15 -69 -59 -70 -59 -26 25 c-26 25 -28 25 -63 10 l-37 -16 5 -72 c2
-40 10 -74 15 -76 6 -2 11 -9 11 -15 0 -6 12 -23 26 -38 32 -33 26 -58 -13
-60 -45 -2 -126 -9 -158 -13 -16 -2 -38 -4 -48 -5 -14 -1 -16 -5 -7 -20 18
-34 11 -69 -31 -172 -42 -102 -42 -111 -12 -177 11 -26 15 -84 17 -255 2 -122
8 -257 15 -300 10 -64 10 -91 -3 -160 -8 -45 -20 -161 -26 -257 -6 -96 -15
-211 -20 -255 -5 -44 -9 -94 -7 -112 2 -26 5 -29 16 -20 12 10 13 9 7 -8 -5
-11 -12 -56 -17 -100 -5 -44 -11 -91 -14 -105 -3 -14 -12 -92 -20 -175 -25
-242 -33 -306 -49 -385 -8 -41 -18 -106 -21 -145 -4 -38 -16 -119 -26 -180
-28 -152 -38 -238 -39 -320 0 -39 -7 -95 -15 -125 -8 -30 -18 -70 -21 -87 -8
-42 -20 -42 -41 2 -9 19 -19 32 -23 30 -4 -3 -26 16 -48 40 -40 45 -42 45
-106 45 -93 0 -168 -32 -197 -84 -12 -21 -43 -127 -70 -235 l-48 -196 -7 -308
c-5 -210 -4 -324 4 -360 6 -28 18 -113 26 -187 16 -143 40 -266 56 -285 5 -7
18 -61 29 -121 30 -169 70 -353 80 -373 6 -10 15 -58 21 -107 40 -317 91 -426
240 -519 59 -37 71 -54 65 -88 -3 -18 1 -34 10 -44 12 -11 15 -42 15 -137 0
-82 5 -135 14 -157 7 -19 17 -61 21 -93 4 -33 11 -71 17 -85 5 -14 11 -73 12
-131 2 -112 26 -253 50 -301 8 -16 18 -43 21 -61 4 -18 11 -37 15 -43 4 -5 10
-32 13 -60 3 -27 15 -84 26 -125 12 -41 31 -122 42 -180 26 -130 53 -212 109
-337 11 -23 28 -73 39 -110 10 -37 28 -88 40 -113 11 -25 21 -54 21 -65 0 -11
6 -32 14 -46 13 -25 13 -26 -43 -42 -31 -9 -78 -22 -106 -28 -27 -7 -92 -28
-145 -46 -52 -19 -147 -47 -210 -64 -63 -16 -162 -45 -220 -64 -58 -19 -127
-39 -155 -45 -135 -28 -218 -42 -300 -51 -98 -10 -326 -67 -500 -123 -114 -37
-243 -64 -282 -58 -21 3 -22 9 -26 90 -1 48 -4 -522 -5 -1265 l-2 -1353 5314
0 5313 0 -33 35 c-18 19 -42 35 -53 35 -12 0 -21 5 -21 10 0 16 -210 220 -225
220 -7 0 -15 3 -17 8 -9 20 -87 70 -119 76 -36 6 -99 33 -109 46 -3 3 -22 16
-44 28 -36 21 -85 59 -230 177 -33 28 -81 65 -106 83 -221 162 -276 202 -350
249 -47 30 -94 61 -105 69 -11 7 -83 56 -161 107 -162 109 -166 112 -248 192
-34 33 -87 79 -119 103 -31 24 -55 47 -52 51 5 9 -72 83 -139 136 -21 17 -46
39 -55 49 -59 71 -116 127 -186 182 -44 34 -133 117 -198 183 -64 66 -137 134
-162 151 -24 17 -59 44 -77 60 -18 17 -36 30 -40 30 -4 0 -32 51 -62 113 -31
61 -71 134 -91 161 -19 27 -35 55 -35 61 0 7 -13 45 -30 85 -36 88 -37 107 -6
168 13 26 29 65 36 87 7 22 18 47 25 55 6 8 24 36 38 62 15 25 39 61 54 78 77
92 215 345 234 429 6 25 15 60 21 76 6 17 16 71 24 120 31 208 67 343 121 451
11 21 23 66 26 100 6 71 31 128 53 120 8 -3 12 -2 9 4 -3 5 10 19 28 32 53 36
80 75 122 178 35 85 40 105 41 185 1 130 13 192 48 260 17 33 44 89 60 125 16
36 63 121 103 189 93 155 193 353 193 381 0 5 12 35 26 67 26 60 61 177 93
318 24 101 45 163 82 235 16 32 29 64 29 71 0 8 12 46 26 84 22 60 25 81 20
144 -2 41 -9 77 -14 80 -5 3 -21 29 -35 56 -14 28 -39 63 -57 80 -30 29 -35
30 -118 30 -70 0 -93 -4 -116 -20 l-29 -19 6 44 c5 40 28 154 72 350 39 173
64 317 75 435 6 72 16 166 21 210 5 44 9 138 9 210 0 133 15 228 75 485 13 58
38 166 55 240 34 156 54 223 62 215 3 -3 11 23 18 57 20 103 52 220 73 268 32
75 47 131 57 210 5 42 17 96 26 120 12 31 19 82 21 163 l4 117 53 0 c54 0 94
19 82 38 -4 7 -16 12 -27 12 -27 0 -73 50 -59 64 16 16 12 41 -10 61 -20 18
-19 18 20 48 61 44 94 120 74 172 -4 9 -23 24 -44 35 -43 22 -50 35 -50 97 0
36 -5 49 -25 65 -20 15 -25 28 -25 63 0 39 5 47 41 79 23 19 57 40 76 47 36
12 63 51 63 92 0 27 -16 37 -57 37 -14 0 -43 5 -64 11 l-38 12 22 29 c12 16
58 53 102 82 119 79 119 79 125 205 l5 106 41 50 c22 28 59 81 82 118 41 67
42 69 42 163 0 94 0 94 -25 94 -14 0 -66 -16 -115 -35 -49 -19 -91 -35 -92
-35 -2 0 -2 57 0 127 3 140 -1 173 -22 173 -8 0 -54 -31 -103 -69 -79 -61
-133 -92 -133 -77 0 3 9 29 21 58 15 39 19 66 15 103 -3 27 -5 57 -5 65 -1 8
-1 56 -1 105 -1 100 -6 110 -67 121 -25 5 -45 0 -83 -20 -27 -14 -61 -26 -75
-26 -22 0 -24 2 -15 25 5 14 7 25 5 25 -3 0 4 17 15 38 14 27 18 48 13 75 -5
34 -11 40 -58 62 -37 18 -69 25 -113 25 -67 0 -72 5 -62 60 8 44 5 134 -5 150
-14 22 -99 54 -150 56 -27 1 -53 2 -56 3 -4 0 -12 22 -19 49 -18 64 -55 120
-84 128 -14 3 -31 13 -39 22 -16 20 -47 101 -47 124 0 30 -23 68 -40 68 -9 0
-31 -16 -48 -36 l-32 -36 0 32 c0 27 -3 31 -17 25 -19 -9 -163 -15 -163 -7 0
2 11 18 25 34 25 29 28 55 8 51 -5 -1 -33 -5 -61 -9 -44 -6 -51 -4 -47 8 4 9
-7 25 -30 43 -41 30 -26 32 -154 -21 -41 -17 -121 -26 -148 -17 -7 3 -5 11 8
24 10 10 19 33 19 50 l0 30 -67 -4 c-81 -4 -129 7 -142 32 -11 20 -38 27 -141
37 -36 3 -78 7 -95 9 -16 2 -47 4 -67 4 -35 1 -38 3 -38 31 0 29 -1 30 -47 30
-27 -1 -68 -5 -93 -10 -25 -6 -72 -13 -106 -16 -55 -6 -69 -3 -144 30 -73 31
-94 36 -163 36 -68 0 -89 -5 -158 -35 -85 -37 -115 -41 -200 -25 -56 11 -82
31 -72 58 5 12 2 14 -18 7 -13 -4 -58 -11 -99 -15 -41 -4 -113 -17 -160 -29
-204 -53 -252 -56 -327 -20 -26 13 -61 25 -78 27 -16 2 -53 12 -82 22 -57 20
-130 20 -201 1 -60 -17 -126 -15 -197 5 -110 32 -211 20 -385 -44 -49 -18
-168 -19 -200 -2 -10 6 -20 22 -22 37 l-3 28 -105 2 c-68 1 -140 -5 -205 -18z"/>
<path d="M3811 12794 c0 -11 3 -14 6 -6 3 7 2 16 -1 19 -3 4 -6 -2 -5 -13z"/>
<path d="M11358 12317 c-3 -19 -2 -25 4 -19 6 6 8 18 6 28 -3 14 -5 12 -10 -9z"/>
<path d="M11311 12163 c-10 -26 -10 -27 4 -9 8 11 15 23 15 28 0 15 -7 8 -19
-19z"/>
<path d="M11271 12044 c0 -11 3 -14 6 -6 3 7 2 16 -1 19 -3 4 -6 -2 -5 -13z"/>
<path d="M11264 11870 c0 -69 1 -97 3 -62 2 34 2 90 0 125 -2 34 -3 6 -3 -63z"/>
<path d="M11254 11535 c0 -99 2 -138 3 -87 2 51 2 132 0 180 -1 48 -3 6 -3
-93z"/>
<path d="M11263 11240 c0 -36 2 -50 4 -32 2 17 2 47 0 65 -2 17 -4 3 -4 -33z"/>
<path d="M11273 11080 c0 -36 2 -50 4 -32 2 17 2 47 0 65 -2 17 -4 3 -4 -33z"/>
<path d="M11281 10834 c0 -11 3 -14 6 -6 3 7 2 16 -1 19 -3 4 -6 -2 -5 -13z"/>
<path d="M11292 10790 c0 -14 2 -19 5 -12 2 6 2 18 0 25 -3 6 -5 1 -5 -13z"/>
<path d="M11301 10744 c0 -11 3 -14 6 -6 3 7 2 16 -1 19 -3 4 -6 -2 -5 -13z"/>
<path d="M11311 10704 c0 -11 3 -14 6 -6 3 7 2 16 -1 19 -3 4 -6 -2 -5 -13z"/>
<path d="M11321 10664 c0 -11 3 -14 6 -6 3 7 2 16 -1 19 -3 4 -6 -2 -5 -13z"/>
<path d="M11331 10614 c0 -11 3 -14 6 -6 3 7 2 16 -1 19 -3 4 -6 -2 -5 -13z"/>
<path d="M11342 10570 c0 -14 2 -19 5 -12 2 6 2 18 0 25 -3 6 -5 1 -5 -13z"/>
<path d="M11352 10520 c0 -14 2 -19 5 -12 2 6 2 18 0 25 -3 6 -5 1 -5 -13z"/>
<path d="M11371 10414 c0 -11 3 -14 6 -6 3 7 2 16 -1 19 -3 4 -6 -2 -5 -13z"/>
<path d="M11382 10310 c0 -14 2 -19 5 -12 2 6 2 18 0 25 -3 6 -5 1 -5 -13z"/>
<path d="M10050 1485 c0 -2 18 -14 40 -25 48 -25 53 -18 8 10 -33 20 -48 25
-48 15z"/>
</g>
</svg>
